<?xml version="1.0" standalone="no"?>
<!DOCTYPE svg PUBLIC "-//W3C//DTD SVG 20010904//EN"
 "http://www.w3.org/TR/2001/REC-SVG-20010904/DTD/svg10.dtd">
<svg version="1.0" xmlns="http://www.w3.org/2000/svg"
 width="154.000000pt" height="154.000000pt" viewBox="0 0 154.000000 154.000000"
 preserveAspectRatio="xMidYMid meet">
<metadata>
Created by potrace 1.11, written by Peter Selinger 2001-2013
</metadata>
<g transform="translate(0.000000,154.000000) scale(0.100000,-0.100000)"
fill="#000000" stroke="none">
<path d="M641 1494 c-235 -63 -393 -316 -351 -561 14 -86 65 -196 117 -255 21
-24 43 -50 48 -59 6 -9 36 -52 68 -95 73 -101 179 -309 213 -420 14 -47 29
-82 33 -78 5 5 22 55 40 111 57 185 159 360 297 513 70 77 91 109 121 187 22
57 26 85 27 168 1 112 -21 195 -74 279 -64 101 -187 189 -300 215 -63 15 -175
12 -239 -5z"/>
</g>
</svg>
